<mxfile host="app.diagrams.net" modified="2023-10-21T10:26:03.506Z" agent="Mozilla/5.0 (Windows NT 10.0; Win64; x64) AppleWebKit/537.36 (KHTML, like Gecko) Chrome/118.0.0.0 Safari/537.36 Edg/118.0.2088.57" etag="qO8SgVtjycA-cpj-3Nsu" version="22.0.6" type="device">
  <diagram name="Page-1" id="95Je2k2wjhN9y_ED5XCY">
    <mxGraphModel dx="2253" dy="785" grid="1" gridSize="10" guides="1" tooltips="1" connect="1" arrows="1" fold="1" page="1" pageScale="1" pageWidth="827" pageHeight="1169" math="0" shadow="0">
      <root>
        <mxCell id="0" />
        <mxCell id="1" parent="0" />
        <mxCell id="6jwBrZOpsMS9TZKzOYD2-42" style="edgeStyle=orthogonalEdgeStyle;rounded=0;orthogonalLoop=1;jettySize=auto;html=1;exitX=1;exitY=0.5;exitDx=0;exitDy=0;entryX=0;entryY=0.5;entryDx=0;entryDy=0;" parent="1" source="6jwBrZOpsMS9TZKzOYD2-1" target="6jwBrZOpsMS9TZKzOYD2-14" edge="1">
          <mxGeometry relative="1" as="geometry" />
        </mxCell>
        <mxCell id="6jwBrZOpsMS9TZKzOYD2-1" value="Lexer" style="rounded=0;whiteSpace=wrap;html=1;fillColor=#d5e8d4;strokeColor=#82b366;" parent="1" vertex="1">
          <mxGeometry x="-80" y="80" width="50" height="40" as="geometry" />
        </mxCell>
        <mxCell id="6jwBrZOpsMS9TZKzOYD2-44" style="edgeStyle=orthogonalEdgeStyle;rounded=0;orthogonalLoop=1;jettySize=auto;html=1;exitX=1;exitY=0.5;exitDx=0;exitDy=0;entryX=0;entryY=0.5;entryDx=0;entryDy=0;" parent="1" source="6jwBrZOpsMS9TZKzOYD2-2" target="6jwBrZOpsMS9TZKzOYD2-15" edge="1">
          <mxGeometry relative="1" as="geometry" />
        </mxCell>
        <mxCell id="6jwBrZOpsMS9TZKzOYD2-2" value="Parser" style="rounded=0;whiteSpace=wrap;html=1;fillColor=#d5e8d4;strokeColor=#82b366;" parent="1" vertex="1">
          <mxGeometry x="110" y="80" width="60" height="40" as="geometry" />
        </mxCell>
        <mxCell id="6jwBrZOpsMS9TZKzOYD2-81" style="edgeStyle=orthogonalEdgeStyle;rounded=0;orthogonalLoop=1;jettySize=auto;html=1;exitX=0.5;exitY=0;exitDx=0;exitDy=0;entryX=0.5;entryY=1;entryDx=0;entryDy=0;" parent="1" source="6jwBrZOpsMS9TZKzOYD2-4" target="6jwBrZOpsMS9TZKzOYD2-25" edge="1">
          <mxGeometry relative="1" as="geometry" />
        </mxCell>
        <mxCell id="6jwBrZOpsMS9TZKzOYD2-4" value="Emiter" style="rounded=0;whiteSpace=wrap;html=1;fillColor=#e1d5e7;strokeColor=#9673a6;" parent="1" vertex="1">
          <mxGeometry x="-200" y="320" width="60" height="40" as="geometry" />
        </mxCell>
        <mxCell id="6jwBrZOpsMS9TZKzOYD2-43" style="edgeStyle=orthogonalEdgeStyle;rounded=0;orthogonalLoop=1;jettySize=auto;html=1;exitX=1;exitY=0.5;exitDx=0;exitDy=0;entryX=0;entryY=0.5;entryDx=0;entryDy=0;" parent="1" source="6jwBrZOpsMS9TZKzOYD2-14" target="6jwBrZOpsMS9TZKzOYD2-2" edge="1">
          <mxGeometry relative="1" as="geometry" />
        </mxCell>
        <mxCell id="6jwBrZOpsMS9TZKzOYD2-14" value="Tokens" style="rounded=1;whiteSpace=wrap;html=1;fillColor=#d5e8d4;strokeColor=#82b366;" parent="1" vertex="1">
          <mxGeometry x="10" y="80" width="60" height="40" as="geometry" />
        </mxCell>
        <mxCell id="14l_E0Z_2C7MvikYtlkA-2" style="edgeStyle=orthogonalEdgeStyle;rounded=0;orthogonalLoop=1;jettySize=auto;html=1;exitX=0.5;exitY=1;exitDx=0;exitDy=0;entryX=0.5;entryY=0;entryDx=0;entryDy=0;" edge="1" parent="1" source="6jwBrZOpsMS9TZKzOYD2-15" target="6jwBrZOpsMS9TZKzOYD2-47">
          <mxGeometry relative="1" as="geometry" />
        </mxCell>
        <mxCell id="6jwBrZOpsMS9TZKzOYD2-15" value="AST" style="rounded=1;whiteSpace=wrap;html=1;fillColor=#d5e8d4;strokeColor=#82b366;" parent="1" vertex="1">
          <mxGeometry x="210" y="80" width="50" height="40" as="geometry" />
        </mxCell>
        <mxCell id="6jwBrZOpsMS9TZKzOYD2-66" style="edgeStyle=orthogonalEdgeStyle;rounded=0;orthogonalLoop=1;jettySize=auto;html=1;exitX=0;exitY=0.5;exitDx=0;exitDy=0;entryX=1;entryY=0.5;entryDx=0;entryDy=0;" parent="1" source="6jwBrZOpsMS9TZKzOYD2-23" target="6jwBrZOpsMS9TZKzOYD2-4" edge="1">
          <mxGeometry relative="1" as="geometry" />
        </mxCell>
        <mxCell id="6jwBrZOpsMS9TZKzOYD2-23" value="NullableWalker" style="rounded=0;whiteSpace=wrap;html=1;fillColor=#dae8fc;strokeColor=#6c8ebf;" parent="1" vertex="1">
          <mxGeometry x="-100" y="320" width="100" height="40" as="geometry" />
        </mxCell>
        <mxCell id="6jwBrZOpsMS9TZKzOYD2-80" style="edgeStyle=orthogonalEdgeStyle;rounded=0;orthogonalLoop=1;jettySize=auto;html=1;exitX=0.5;exitY=1;exitDx=0;exitDy=0;entryX=0.5;entryY=0;entryDx=0;entryDy=0;" parent="1" source="6jwBrZOpsMS9TZKzOYD2-24" target="6jwBrZOpsMS9TZKzOYD2-23" edge="1">
          <mxGeometry relative="1" as="geometry" />
        </mxCell>
        <mxCell id="6jwBrZOpsMS9TZKzOYD2-24" value="Bound Tree" style="rounded=1;whiteSpace=wrap;html=1;fillColor=#dae8fc;strokeColor=#6c8ebf;" parent="1" vertex="1">
          <mxGeometry x="-90" y="230" width="80" height="40" as="geometry" />
        </mxCell>
        <mxCell id="6jwBrZOpsMS9TZKzOYD2-25" value="IL" style="rounded=1;whiteSpace=wrap;html=1;fillColor=#e1d5e7;strokeColor=#9673a6;" parent="1" vertex="1">
          <mxGeometry x="-190" y="240" width="40" height="40" as="geometry" />
        </mxCell>
        <mxCell id="14l_E0Z_2C7MvikYtlkA-1" style="edgeStyle=orthogonalEdgeStyle;rounded=0;orthogonalLoop=1;jettySize=auto;html=1;exitX=1;exitY=0.5;exitDx=0;exitDy=0;entryX=0;entryY=0.5;entryDx=0;entryDy=0;" edge="1" parent="1" source="6jwBrZOpsMS9TZKzOYD2-28" target="6jwBrZOpsMS9TZKzOYD2-47">
          <mxGeometry relative="1" as="geometry" />
        </mxCell>
        <mxCell id="6jwBrZOpsMS9TZKzOYD2-28" value="MetadataLoader" style="rounded=0;whiteSpace=wrap;html=1;fillColor=#ffe6cc;strokeColor=#d79b00;" parent="1" vertex="1">
          <mxGeometry x="-80" y="160" width="100" height="40" as="geometry" />
        </mxCell>
        <mxCell id="6jwBrZOpsMS9TZKzOYD2-30" value="C# project" style="swimlane;whiteSpace=wrap;html=1;" parent="1" vertex="1">
          <mxGeometry x="-200" y="40" width="90" height="180" as="geometry" />
        </mxCell>
        <mxCell id="6jwBrZOpsMS9TZKzOYD2-32" value=".cs" style="rounded=1;whiteSpace=wrap;html=1;" parent="6jwBrZOpsMS9TZKzOYD2-30" vertex="1">
          <mxGeometry x="10" y="35" width="60" height="30" as="geometry" />
        </mxCell>
        <mxCell id="6jwBrZOpsMS9TZKzOYD2-55" value=".cs" style="rounded=1;whiteSpace=wrap;html=1;" parent="6jwBrZOpsMS9TZKzOYD2-30" vertex="1">
          <mxGeometry x="20" y="45" width="60" height="30" as="geometry" />
        </mxCell>
        <mxCell id="6jwBrZOpsMS9TZKzOYD2-34" value=".dll" style="rounded=1;whiteSpace=wrap;html=1;" parent="6jwBrZOpsMS9TZKzOYD2-30" vertex="1">
          <mxGeometry x="10" y="90" width="60" height="30" as="geometry" />
        </mxCell>
        <mxCell id="6jwBrZOpsMS9TZKzOYD2-58" value=".dll" style="rounded=1;whiteSpace=wrap;html=1;" parent="6jwBrZOpsMS9TZKzOYD2-30" vertex="1">
          <mxGeometry x="20" y="100" width="60" height="30" as="geometry" />
        </mxCell>
        <mxCell id="6jwBrZOpsMS9TZKzOYD2-33" value=".csproj" style="rounded=1;whiteSpace=wrap;html=1;" parent="6jwBrZOpsMS9TZKzOYD2-30" vertex="1">
          <mxGeometry x="10" y="140" width="60" height="30" as="geometry" />
        </mxCell>
        <mxCell id="14l_E0Z_2C7MvikYtlkA-3" style="edgeStyle=orthogonalEdgeStyle;rounded=0;orthogonalLoop=1;jettySize=auto;html=1;exitX=1;exitY=0.5;exitDx=0;exitDy=0;entryX=0;entryY=0.5;entryDx=0;entryDy=0;" edge="1" parent="1" source="6jwBrZOpsMS9TZKzOYD2-47" target="14l_E0Z_2C7MvikYtlkA-6">
          <mxGeometry relative="1" as="geometry" />
        </mxCell>
        <mxCell id="6jwBrZOpsMS9TZKzOYD2-47" value="GetDeclarations" style="rounded=0;whiteSpace=wrap;html=1;fillColor=#ffe6cc;strokeColor=#d79b00;" parent="1" vertex="1">
          <mxGeometry x="50" y="160" width="96" height="40" as="geometry" />
        </mxCell>
        <mxCell id="6jwBrZOpsMS9TZKzOYD2-77" style="edgeStyle=orthogonalEdgeStyle;rounded=0;orthogonalLoop=1;jettySize=auto;html=1;exitX=0.5;exitY=1;exitDx=0;exitDy=0;entryX=1;entryY=0.5;entryDx=0;entryDy=0;" parent="1" source="6jwBrZOpsMS9TZKzOYD2-48" target="6jwBrZOpsMS9TZKzOYD2-69" edge="1">
          <mxGeometry relative="1" as="geometry" />
        </mxCell>
        <mxCell id="6jwBrZOpsMS9TZKzOYD2-48" value="CompileMethods&amp;nbsp;" style="rounded=0;whiteSpace=wrap;html=1;fillColor=#dae8fc;strokeColor=#6c8ebf;" parent="1" vertex="1">
          <mxGeometry x="290" y="160" width="100" height="40" as="geometry" />
        </mxCell>
        <mxCell id="6jwBrZOpsMS9TZKzOYD2-59" style="edgeStyle=orthogonalEdgeStyle;rounded=0;orthogonalLoop=1;jettySize=auto;html=1;exitX=1;exitY=0.5;exitDx=0;exitDy=0;entryX=0;entryY=0.5;entryDx=0;entryDy=0;" parent="1" source="6jwBrZOpsMS9TZKzOYD2-55" target="6jwBrZOpsMS9TZKzOYD2-1" edge="1">
          <mxGeometry relative="1" as="geometry" />
        </mxCell>
        <mxCell id="6jwBrZOpsMS9TZKzOYD2-60" style="edgeStyle=orthogonalEdgeStyle;rounded=0;orthogonalLoop=1;jettySize=auto;html=1;exitX=1;exitY=0.5;exitDx=0;exitDy=0;entryX=0;entryY=0.5;entryDx=0;entryDy=0;" parent="1" source="6jwBrZOpsMS9TZKzOYD2-33" target="6jwBrZOpsMS9TZKzOYD2-28" edge="1">
          <mxGeometry relative="1" as="geometry">
            <Array as="points">
              <mxPoint x="-100" y="195" />
              <mxPoint x="-100" y="180" />
            </Array>
          </mxGeometry>
        </mxCell>
        <mxCell id="6jwBrZOpsMS9TZKzOYD2-61" style="edgeStyle=orthogonalEdgeStyle;rounded=0;orthogonalLoop=1;jettySize=auto;html=1;exitX=1;exitY=0.5;exitDx=0;exitDy=0;" parent="1" source="6jwBrZOpsMS9TZKzOYD2-58" target="6jwBrZOpsMS9TZKzOYD2-28" edge="1">
          <mxGeometry relative="1" as="geometry" />
        </mxCell>
        <mxCell id="6jwBrZOpsMS9TZKzOYD2-69" value="Binders" style="swimlane;whiteSpace=wrap;html=1;" parent="1" vertex="1">
          <mxGeometry x="30" y="230" width="280" height="140" as="geometry" />
        </mxCell>
        <mxCell id="6jwBrZOpsMS9TZKzOYD2-20" value="Method binder" style="rounded=0;whiteSpace=wrap;html=1;fillColor=#dae8fc;strokeColor=#6c8ebf;" parent="6jwBrZOpsMS9TZKzOYD2-69" vertex="1">
          <mxGeometry x="10" y="90" width="90" height="40" as="geometry" />
        </mxCell>
        <mxCell id="6jwBrZOpsMS9TZKzOYD2-76" value="" style="rounded=0;whiteSpace=wrap;html=1;fillColor=#dae8fc;strokeColor=#6c8ebf;" parent="6jwBrZOpsMS9TZKzOYD2-69" vertex="1">
          <mxGeometry x="30" y="60" width="80" height="40" as="geometry" />
        </mxCell>
        <mxCell id="6jwBrZOpsMS9TZKzOYD2-75" style="edgeStyle=orthogonalEdgeStyle;rounded=0;orthogonalLoop=1;jettySize=auto;html=1;exitX=1;exitY=0.5;exitDx=0;exitDy=0;entryX=0;entryY=0.5;entryDx=0;entryDy=0;" parent="6jwBrZOpsMS9TZKzOYD2-69" source="6jwBrZOpsMS9TZKzOYD2-20" target="6jwBrZOpsMS9TZKzOYD2-21" edge="1">
          <mxGeometry relative="1" as="geometry" />
        </mxCell>
        <mxCell id="6jwBrZOpsMS9TZKzOYD2-70" value="" style="rounded=0;whiteSpace=wrap;html=1;fillColor=#dae8fc;strokeColor=#6c8ebf;" parent="6jwBrZOpsMS9TZKzOYD2-69" vertex="1">
          <mxGeometry x="38" y="50" width="80" height="40" as="geometry" />
        </mxCell>
        <mxCell id="6jwBrZOpsMS9TZKzOYD2-19" value="Namespace binder" style="rounded=0;whiteSpace=wrap;html=1;fillColor=#dae8fc;strokeColor=#6c8ebf;" parent="6jwBrZOpsMS9TZKzOYD2-69" vertex="1">
          <mxGeometry x="50" y="40" width="78" height="40" as="geometry" />
        </mxCell>
        <mxCell id="6jwBrZOpsMS9TZKzOYD2-22" value="Method Type Inference" style="rounded=0;whiteSpace=wrap;html=1;fillColor=#dae8fc;strokeColor=#6c8ebf;" parent="6jwBrZOpsMS9TZKzOYD2-69" vertex="1">
          <mxGeometry x="150" y="30" width="120" height="40" as="geometry" />
        </mxCell>
        <mxCell id="6jwBrZOpsMS9TZKzOYD2-74" style="edgeStyle=orthogonalEdgeStyle;rounded=0;orthogonalLoop=1;jettySize=auto;html=1;exitX=0.5;exitY=0;exitDx=0;exitDy=0;entryX=0.5;entryY=1;entryDx=0;entryDy=0;" parent="6jwBrZOpsMS9TZKzOYD2-69" source="6jwBrZOpsMS9TZKzOYD2-21" target="6jwBrZOpsMS9TZKzOYD2-22" edge="1">
          <mxGeometry relative="1" as="geometry" />
        </mxCell>
        <mxCell id="6jwBrZOpsMS9TZKzOYD2-21" value="Overload resolution" style="rounded=0;whiteSpace=wrap;html=1;fillColor=#dae8fc;strokeColor=#6c8ebf;" parent="6jwBrZOpsMS9TZKzOYD2-69" vertex="1">
          <mxGeometry x="150" y="90" width="120" height="40" as="geometry" />
        </mxCell>
        <mxCell id="6jwBrZOpsMS9TZKzOYD2-79" value="" style="endArrow=classic;html=1;rounded=0;entryX=1;entryY=0.5;entryDx=0;entryDy=0;" parent="1" target="6jwBrZOpsMS9TZKzOYD2-24" edge="1">
          <mxGeometry width="50" height="50" relative="1" as="geometry">
            <mxPoint x="30" y="250" as="sourcePoint" />
            <mxPoint x="80" y="440" as="targetPoint" />
          </mxGeometry>
        </mxCell>
        <mxCell id="14l_E0Z_2C7MvikYtlkA-8" style="edgeStyle=orthogonalEdgeStyle;rounded=0;orthogonalLoop=1;jettySize=auto;html=1;exitX=1;exitY=0.5;exitDx=0;exitDy=0;entryX=0;entryY=0.5;entryDx=0;entryDy=0;" edge="1" parent="1" source="14l_E0Z_2C7MvikYtlkA-6" target="6jwBrZOpsMS9TZKzOYD2-48">
          <mxGeometry relative="1" as="geometry" />
        </mxCell>
        <mxCell id="14l_E0Z_2C7MvikYtlkA-6" value="Named symbols" style="rounded=1;whiteSpace=wrap;html=1;fillColor=#ffe6cc;strokeColor=#d79b00;" vertex="1" parent="1">
          <mxGeometry x="180" y="160" width="80" height="40" as="geometry" />
        </mxCell>
      </root>
    </mxGraphModel>
  </diagram>
</mxfile>
